PathFileType   4   (X/Y/Z)
DataRate	CameraRate	NumFrames	NumMarkers	Units	OrigDataRate	OrigDataStartFrame	OrigNumFrames
120.0	120.0	10	37	mm	120.0	104	118
Frame#	Time	midhip	hip_r	hip_l	knee_r	knee_l	ankle_r	ankle_l	midasis	asis_r	asis_l	psis_r	psis_l	epicondLat_r	epicondLat_l	epicondMed_r	epicondMed_l	malleolusLat_r	malleolusLat_l	malleolusMedv_r	malleolusMedv_l	neck	subclavicle_r	subclavicle_l	sternalnotch	xyphoidprocess	thighwand_r	thighwand_l	upperleg1_r	upperleg1_l	upperleg2_r	upperleg2_l	shankwand_r	shankwand_l	lowerleg1_r	lowerleg1_l	toe_r	toe_l
 	 	X1	Y1	Z1	X2	Y2	Z2	X3	Y3	Z3	X4	Y4	Z4	X5	Y5	Z5	X6	Y6	Z6	X7	Y7	Z7	X8	Y8	Z8	X9	Y9	Z9	X10	Y10	Z10	X11	Y11	Z11	X12	Y12	Z12	X13	Y13	Z13	X14	Y14	Z14	X15	Y15	Z15	X16	Y16	Z16	X17	Y17	Z17	X18	Y18	Z18	X19	Y19	Z19	X20	Y20	Z20	X21	Y21	Z21	X22	Y22	Z22	X23	Y23	Z23	X24	Y24	Z24	X25	Y25	Z25	X26	Y26	Z26	X27	Y27	Z27	X28	Y28	Z28	X29	Y29	Z29	X30	Y30	Z30	X31	Y31	Z31	X32	Y32	Z32	X33	Y33	Z33	X34	Y34	Z34	X35	Y35	Z35	X36	Y36	Z36	X37	Y37	Z37

	104	0.98333	2120.706	881.493	-238.598	2113.151	858.386	-170.907	2118.192	863.362	-321.169	2307.951	482.318	-149.508	2059.387	457.938	-284.387	2370.114	86.269	-153.729	1955.974	72.412	-252.141	2198.437	951.056	-240.274	2194.513	947.182	-123.301	2202.362	954.930	-357.248	2010.485	980.048	-203.729	2018.025	985.351	-288.449	2311.834	487.637	-91.380	2072.029	451.008	-340.567	2297.655	466.918	-198.223	2046.499	477.725	-222.013	2353.609	83.292	-117.414	1944.110	72.487	-289.292	2380.532	100.841	-180.347	1960.287	87.818	-226.257	2019.154	1415.646	-237.131	2141.021	1337.967	-179.741	2153.575	1343.135	-285.217	2130.356	1348.480	-230.971	2210.947	1184.370	-241.460	2305.717	593.813	-16.010	2224.246	538.369	-272.396	2289.407	658.325	-83.617	2170.824	600.286	-327.149	2326.944	579.235	-103.941	2136.081	519.975	-314.618	2341.688	217.420	-28.025	2014.796	188.773	-380.554	2345.240	182.678	-101.435	1978.621	165.392	-310.803	2487.809	71.408	-133.501	2073.839	38.625	-264.800
	105	0.99167	2130.540	879.721	-238.716	2123.043	856.259	-170.775	2127.551	861.558	-321.044	2317.266	479.978	-150.059	2064.729	457.225	-284.329	2397.080	86.251	-155.018	1956.481	72.857	-252.201	2208.017	949.139	-240.246	2204.504	945.008	-123.119	2211.531	953.269	-357.372	2020.245	977.895	-203.014	2027.359	983.429	-287.829	2320.285	484.742	-91.832	2077.019	450.208	-340.576	2304.374	463.455	-198.954	2053.524	477.538	-220.812	2380.887	82.510	-118.634	1944.520	73.122	-289.321	2407.022	101.640	-181.477	1960.938	88.541	-226.312	2029.233	1413.902	-237.342	2151.077	1335.907	-179.692	2163.461	1341.083	-285.496	2140.193	1346.547	-231.163	2220.595	1182.191	-241.730	2312.994	589.958	-16.160	2230.762	536.033	-273.071	2296.630	654.441	-83.461	2177.701	599.120	-328.013	2334.018	575.184	-104.186	2142.291	518.245	-314.457	2363.369	216.179	-29.004	2016.423	188.507	-380.709	2368.064	181.678	-102.483	1980.292	165.840	-311.012	2515.574	76.056	-135.775	2073.941	38.526	-265.074
	106	1.00000	2141.002	878.474	-238.718	2133.039	854.125	-170.670	2136.986	859.748	-320.942	2326.341	477.566	-150.439	2070.260	456.489	-284.297	2422.598	86.817	-156.528	1957.076	73.364	-252.314	2217.696	947.207	-240.256	2214.615	942.817	-122.936	2220.778	951.597	-357.577	2030.116	975.753	-202.281	2036.793	981.493	-287.207	2328.633	481.875	-92.143	2082.063	449.415	-340.641	2310.673	459.771	-199.354	2060.096	476.754	-221.222	2406.742	82.343	-120.078	1944.966	73.847	-289.383	2431.680	103.113	-183.094	1961.945	89.293	-226.371	2039.216	1412.140	-237.314	2161.219	1333.651	-179.809	2173.301	1339.314	-285.682	2150.068	1344.553	-231.287	2230.406	1180.164	-242.802	2320.512	586.234	-16.235	2237.468	533.581	-274.137	2304.422	650.424	-83.463	2184.633	597.394	-328.786	2341.138	571.216	-104.352	2148.765	517.094	-315.274	2384.027	215.294	-30.084	2017.975	188.367	-380.904	2389.937	181.310	-103.614	1982.400	166.299	-311.137	2541.761	80.986	-138.330	2074.085	38.452	-265.359
	107	1.00833	2152.012	877.728	-238.658	2143.146	852.016	-170.588	2146.524	857.939	-320.863	2335.211	475.137	-150.673	2075.994	455.747	-284.271	2446.504	87.812	-158.223	1957.752	73.945	-252.466	2227.489	945.284	-240.308	2224.847	940.651	-122.762	2230.131	949.916	-357.855	2040.098	973.645	-201.540	2046.349	979.564	-286.582	2336.955	479.109	-92.334	2087.178	448.648	-340.738	2317.233	455.720	-199.116	2066.193	476.011	-221.513	2430.981	82.640	-121.723	1945.441	74.676	-289.465	2455.102	104.934	-185.078	1963.288	89.754	-226.409	2048.948	1410.319	-237.083	2171.387	1331.382	-179.973	2183.088	1337.693	-285.871	2159.991	1342.541	-231.333	2240.436	1178.319	-244.150	2328.396	582.738	-16.251	2244.351	531.051	-275.574	2312.455	646.616	-83.913	2191.474	595.444	-329.189	2348.494	567.495	-104.525	2154.649	516.013	-316.120	2403.480	214.652	-31.258	2019.471	188.373	-381.129	2410.850	181.441	-105.182	1984.253	166.804	-311.139	2566.229	85.972	-141.111	2074.287	38.406	-265.611
	108	1.01667	2162.719	876.600	-238.650	2153.371	849.969	-170.510	2156.181	856.134	-320.786	2343.927	472.748	-150.803	2081.936	455.013	-284.240	2468.667	89.058	-160.051	1958.481	74.611	-252.648	2237.407	943.388	-240.397	2235.205	938.556	-122.605	2239.609	948.220	-358.189	2050.188	971.594	-200.813	2056.044	977.659	-285.958	2345.324	476.502	-92.440	2092.391	447.920	-340.847	2324.177	451.746	-198.642	2073.007	474.972	-221.158	2453.433	83.225	-123.529	1945.935	75.617	-289.561	2476.876	107.072	-187.135	1964.396	90.148	-226.446	2058.649	1408.420	-237.014	2181.147	1329.179	-179.717	2193.066	1335.687	-285.938	2169.952	1340.543	-231.288	2250.230	1176.197	-244.219	2336.728	579.541	-16.232	2251.401	528.498	-277.317	2320.692	643.075	-84.183	2198.498	593.630	-330.007	2356.310	563.819	-104.650	2160.492	514.008	-316.747	2421.562	214.128	-32.510	2020.940	188.539	-381.375	2430.506	181.415	-107.178	1985.559	167.560	-311.248	2588.852	90.746	-144.049	2074.557	38.382	-265.805
	109	1.02500	2172.915	874.829	-238.577	2163.723	848.023	-170.412	2165.971	854.339	-320.692	2352.552	470.444	-150.878	2088.076	454.293	-284.202	2488.980	90.359	-161.949	1959.232	75.373	-252.854	2247.459	941.547	-240.518	2245.694	936.585	-122.474	2249.225	946.508	-358.562	2060.378	969.625	-200.120	2065.892	975.796	-285.349	2353.804	474.090	-92.505	2097.727	447.237	-340.956	2330.972	449.262	-199.120	2080.240	473.757	-221.365	2473.962	83.906	-125.441	1946.434	76.679	-289.671	2496.387	109.666	-188.938	1964.966	90.913	-226.582	2068.704	1406.573	-237.058	2190.738	1327.234	-179.649	2203.112	1333.375	-285.820	2179.941	1338.595	-231.151	2259.640	1173.851	-243.379	2345.540	576.687	-16.213	2258.611	525.975	-279.270	2329.200	640.399	-83.837	2205.492	591.878	-331.585	2364.542	560.615	-105.087	2166.709	511.976	-317.914	2438.151	213.591	-33.818	2022.426	188.867	-381.634	2447.836	181.830	-108.617	1986.937	168.229	-311.497	2609.514	95.015	-147.060	2074.897	38.373	-265.926
	110	1.03333	2182.827	872.673	-238.368	2174.195	846.216	-170.278	2175.889	852.566	-320.563	2361.166	468.269	-150.947	2094.406	453.583	-284.156	2507.366	91.510	-163.854	1959.987	76.253	-253.078	2257.642	939.783	-240.671	2256.309	934.786	-122.386	2258.976	944.781	-358.956	2070.664	967.770	-199.479	2075.903	974.000	-284.769	2362.456	471.893	-92.574	2103.218	446.591	-341.054	2337.901	447.529	-199.203	2087.787	472.646	-221.919	2492.471	84.481	-127.402	1946.941	77.876	-289.796	2514.316	111.983	-190.582	1965.425	91.995	-226.758	2078.890	1404.777	-236.701	2200.798	1325.597	-179.519	2213.149	1331.122	-285.638	2189.976	1336.746	-230.923	2269.390	1171.731	-242.371	2354.820	574.193	-16.228	2265.980	523.523	-281.315	2338.075	638.707	-83.333	2212.458	590.213	-333.210	2373.080	558.125	-105.294	2173.394	510.720	-319.385	2453.175	212.924	-35.157	2023.979	189.357	-381.899	2463.449	182.541	-109.556	1988.103	168.561	-311.735	2628.131	98.500	-150.046	2075.297	38.371	-265.970
	111	1.04167	2192.974	870.762	-238.046	2184.781	844.585	-170.083	2185.926	850.827	-320.379	2369.867	466.266	-151.060	2100.928	452.874	-284.094	2523.772	92.308	-165.714	1960.757	77.279	-253.318	2267.950	938.121	-240.847	2267.047	933.199	-122.344	2268.852	943.042	-359.350	2081.054	966.061	-198.899	2086.082	972.292	-284.233	2371.339	469.921	-92.693	2108.916	445.968	-341.125	2345.273	446.559	-199.752	2095.623	471.581	-222.232	2508.899	84.762	-129.356	1947.480	79.234	-289.936	2530.927	113.366	-192.298	1966.035	93.256	-226.869	2088.938	1402.961	-236.208	2211.018	1323.817	-178.974	2223.165	1329.262	-285.297	2200.055	1335.025	-230.612	2279.531	1169.920	-241.922	2364.524	572.059	-16.316	2273.510	521.175	-283.321	2347.944	637.227	-83.061	2219.624	588.655	-334.372	2382.083	556.418	-105.612	2180.345	509.850	-320.624	2466.637	212.039	-36.512	2025.655	190.013	-382.165	2478.156	182.626	-110.817	1989.389	169.153	-311.758	2644.643	100.953	-152.909	2075.744	38.375	-265.941
	112	1.05000	2203.410	869.185	-237.637	2195.472	843.155	-169.802	2196.064	849.138	-320.111	2378.767	464.471	-151.258	2107.661	452.155	-284.009	2538.160	92.584	-167.495	1961.580	78.487	-253.572	2278.370	936.577	-241.031	2277.903	931.852	-122.338	2278.838	941.302	-359.724	2091.568	964.523	-198.381	2096.432	970.695	-283.743	2380.517	468.175	-92.901	2114.879	445.350	-341.154	2353.734	446.603	-201.879	2103.707	469.901	-222.595	2523.220	84.598	-131.259	1948.091	80.786	-290.093	2545.115	114.172	-194.050	1967.082	94.553	-227.034	2098.794	1401.215	-236.025	2221.254	1322.132	-178.374	2233.354	1327.877	-284.785	2210.168	1333.456	-230.225	2290.193	1168.590	-241.773	2374.592	570.273	-16.504	2281.212	518.957	-285.163	2358.486	635.508	-83.002	2226.960	587.181	-335.188	2391.721	555.401	-106.580	2187.490	508.654	-321.686	2478.617	210.879	-37.870	2027.498	190.855	-382.428	2491.295	182.188	-112.336	1991.114	170.591	-311.557	2659.044	102.199	-155.570	2076.217	38.389	-265.861
	113	1.05833	2214.055	867.856	-237.138	2206.264	841.943	-169.421	2206.298	847.522	-319.747	2387.967	462.918	-151.576	2114.635	451.428	-283.900	2550.513	92.217	-169.189	1962.509	79.916	-253.848	2288.904	935.166	-241.210	2288.877	930.755	-122.357	2288.930	939.577	-360.062	2102.231	963.173	-197.918	2106.952	969.233	-283.297	2390.042	466.660	-93.233	2121.173	444.735	-341.140	2363.826	445.650	-202.352	2112.552	466.807	-223.170	2535.443	83.893	-133.083	1948.826	82.572	-290.272	2556.751	114.259	-195.684	1968.694	95.693	-227.383	2108.625	1399.720	-235.657	2231.289	1320.763	-177.821	2243.947	1326.880	-284.388	2220.318	1332.043	-229.749	2301.084	1167.650	-241.439	2384.968	568.809	-16.815	2289.092	516.881	-286.750	2368.926	634.087	-83.014	2234.245	585.902	-335.760	2401.967	554.317	-106.784	2195.131	506.836	-322.651	2489.256	209.424	-39.231	2029.544	191.909	-382.692	2502.638	181.081	-113.958	1993.288	172.084	-311.500	2671.349	102.115	-157.967	2076.697	38.423	-265.768
